<?xml version="1.0" encoding="UTF-8"?> <svg xmlns="http://www.w3.org/2000/svg" xmlns:xlink="http://www.w3.org/1999/xlink" width="70px" height="45px" viewBox="0 0 70 45"> <!-- Generator: Sketch 54.1 (76490) - https://sketchapp.com --> <title>Artboard</title> <desc>Created with Sketch.</desc> <g id="Artboard" stroke="none" stroke-width="1" fill="none" fill-rule="evenodd"> <rect fill="#505AEA" x="0" y="0" width="70" height="45"></rect> <polygon id="Fill-43" fill="#FFFFFF" fill-rule="nonzero" points="8 26 9 26 9 18 8 18"></polygon> <polygon id="Fill-45" fill="#FFFFFF" fill-rule="nonzero" points="26 27 27 27 27 24 26 24"></polygon> <polygon id="Fill-46" fill="#FFFFFF" fill-rule="nonzero" points="44 27 45 27 45 24 44 24"></polygon> <polygon id="Fill-47" fill="#FFFFFF" fill-rule="nonzero" points="26 14 27 14 27 9 26 9"></polygon> <polygon id="Fill-48" fill="#FFFFFF" fill-rule="nonzero" points="44 13 45 13 45 9 44 9"></polygon> <polygon id="Fill-49" fill="#FFFFFF" fill-rule="nonzero" points="61 19 62 19 62 9 61 9"></polygon> <polygon id="Fill-50" fill="#FFFFFF" fill-rule="nonzero" points="17 26 18 26 18 9 17 9"></polygon> <polygon id="Fill-51" fill="#FFFFFF" fill-rule="nonzero" points="35 26 36 26 36 9 35 9"></polygon> <polygon id="Fill-52" fill="#FFFFFF" fill-rule="nonzero" points="52 26 53 26 53 9 52 9"></polygon> <g id="Group-2" transform="translate(6.000000, 30.000000)" fill="#FFFFFF" fill-rule="nonzero"> <polygon id="Path" points="-1.3500312e-13 5.74990909 -1.3500312e-13 0.102818182 1.51459716 0.102818182 2.69438863 2.56254545 2.88570616 2.56254545 4.0495545 0.102818182 5.57212322 0.102818182 5.57212322 5.74990909 4.66336493 5.74990909 4.66336493 1.23381818 4.47204739 1.23381818 3.26834123 3.70936364 2.29581043 3.70936364 1.10007583 1.23381818 0.908758294 1.23381818 0.908758294 5.74990909"></polygon> <path d="M14.0250048,5.74990909 L13.4988816,4.12854545 L11.1632134,4.12854545 L10.6450617,5.74990909 L9.68847402,5.74990909 L11.5777347,0.102818182 L13.108275,0.102818182 L15.0055072,5.74990909 L14.0250048,5.74990909 Z M12.1516873,1.02818182 L11.4342465,3.28227273 L13.2198769,3.28227273 L12.4944645,1.02818182 L12.1516873,1.02818182 Z" id="Combined-Shape"></path> <path d="M22.7093367,1.58972727 L21.7368059,1.58972727 C21.6172324,1.08354545 21.2505405,0.830454545 20.5410713,0.830454545 C19.943204,0.830454545 19.448967,1.07563636 19.448967,1.59763636 C19.448967,2.06427273 19.8395736,2.21454545 20.2780096,2.29363636 C20.4533841,2.33318182 21.1389386,2.45972727 21.3461992,2.49927273 C22.2150997,2.68909091 22.8368817,3.13990909 22.8368817,4.12063636 C22.8368817,5.03809091 22.1114694,5.85272727 20.6128153,5.85272727 C19.2337348,5.85272727 18.3568627,5.14090909 18.2532324,4.09690909 L19.2257632,4.09690909 C19.3533082,4.79290909 19.943204,5.02227273 20.6526732,5.02227273 C21.3621423,5.02227273 21.8723224,4.72172727 21.8723224,4.16018182 C21.8723224,3.63027273 21.5215736,3.42463636 21.0113935,3.32181818 L19.9033461,3.10827273 C19.0185025,2.94218182 18.4844078,2.46763636 18.4844078,1.62136364 C18.4844078,0.719727273 19.2177916,2.13162821e-14 20.5570144,2.13162821e-14 C21.7686921,2.13162821e-14 22.5817916,0.624818182 22.7093367,1.58972727 Z" id="Path"></path> <polygon id="Path" points="31.8474979 0.102818182 31.8474979 0.941181818 30.0299813 0.941181818 30.0299813 5.74990909 29.0733936 5.74990909 29.0733936 0.941181818 27.2479055 0.941181818 27.2479055 0.102818182"></polygon> <polygon id="Path" points="37.1873463 4.88781818 40.4238013 4.88781818 40.4238013 5.74990909 36.2307586 5.74990909 36.2307586 0.102818182 40.320171 0.102818182 40.320171 0.964909091 37.1873463 0.964909091 37.1873463 2.42018182 39.6665027 2.42018182 39.6665027 3.26645455 37.1873463 3.26645455"></polygon> <path d="M44.4884744,0.102818182 L47.0872042,0.102818182 C48.3227966,0.102818182 49.0242943,0.735545455 49.0242943,1.80327273 C49.0242943,2.49927273 48.7213748,3.00545455 48.1713369,3.28227273 L49.048209,5.74990909 L48.0756781,5.74990909 L47.2705502,3.48790909 C47.1031473,3.51163636 46.9357445,3.50372727 46.7683417,3.50372727 L45.445062,3.50372727 L45.445062,5.74990909 L44.4884744,5.74990909 L44.4884744,0.102818182 Z M45.445062,0.941181818 L45.445062,2.68118182 L46.9516876,2.68118182 C47.7568156,2.68118182 48.0517635,2.349 48.0517635,1.81118182 C48.0517635,1.24963636 47.7568156,0.941181818 46.9516876,0.941181818 L45.445062,0.941181818 Z" id="Combined-Shape"></path> <path d="M57.620664,1.58972727 L56.6481332,1.58972727 C56.5285597,1.08354545 56.1618678,0.830454545 55.4523986,0.830454545 C54.8545313,0.830454545 54.3602943,1.07563636 54.3602943,1.59763636 C54.3602943,2.06427273 54.750901,2.21454545 55.189337,2.29363636 C55.3647114,2.33318182 56.0502659,2.45972727 56.2575266,2.49927273 C57.126427,2.68909091 57.748209,3.13990909 57.748209,4.12063636 C57.748209,5.03809091 57.0227967,5.85272727 55.5241427,5.85272727 C54.1450621,5.85272727 53.2681901,5.14090909 53.1645597,4.09690909 L54.1370906,4.09690909 C54.2646356,4.79290909 54.8545313,5.02227273 55.5640005,5.02227273 C56.2734697,5.02227273 56.7836498,4.72172727 56.7836498,4.16018182 C56.7836498,3.63027273 56.432901,3.42463636 55.9227209,3.32181818 L54.8146735,3.10827273 C53.9298299,2.94218182 53.3957351,2.46763636 53.3957351,1.62136364 C53.3957351,0.719727273 54.129119,2.13162821e-14 55.4683417,2.13162821e-14 C56.6800195,2.13162821e-14 57.493119,0.624818182 57.620664,1.58972727 Z" id="Path"></path> </g> <path d="M7,9 L9.30831974,9 C11.0946166,9 12,9.99439776 12,11.5 C12,12.9985994 11.0946166,14 9.30831974,14 L7,14 L7,9 Z M7.97879282,13.2366947 L9.22675367,13.2366947 C10.5318108,13.2366947 11.004894,12.452381 11.004894,11.5 C11.004894,10.5406162 10.5318108,9.76330532 9.22675367,9.76330532 L7.97879282,9.76330532 L7.97879282,13.2366947 Z" id="D" fill="#FFFFFF" fill-rule="nonzero"></path> <path d="M28.077961,21 L27.5832084,19.5644258 L25.3868066,19.5644258 L24.8995502,21 L24,21 L25.7766117,16 L27.2158921,16 L29,21 L28.077961,21 Z M26.3163418,16.8193277 L25.6416792,18.8151261 L27.3208396,18.8151261 L26.6386807,16.8193277 L26.3163418,16.8193277 Z" id="A" fill="#FFFFFF" fill-rule="nonzero"></path> <path d="M63.077961,26 L62.5832084,24.5644258 L60.3868066,24.5644258 L59.8995502,26 L59,26 L60.7766117,21 L62.2158921,21 L64,26 L63.077961,26 Z M61.3163418,21.8193277 L60.6416792,23.8151261 L62.3208396,23.8151261 L61.6386807,21.8193277 L61.3163418,21.8193277 Z" id="A" fill="#FFFFFF" fill-rule="nonzero"></path> <polygon id="T" fill="#FFFFFF" fill-rule="nonzero" points="47 15 47 15.7422969 45.0242634 15.7422969 45.0242634 20 43.9844021 20 43.9844021 15.7422969 42 15.7422969 42 15"></polygon> </g> </svg>
