<?xml version="1.0" encoding="UTF-8"?>
<svg width="679px" height="147px" viewBox="0 0 679 147" version="1.1" xmlns="http://www.w3.org/2000/svg" xmlns:xlink="http://www.w3.org/1999/xlink">
    <!-- Generator: Sketch 50 (54983) - http://www.bohemiancoding.com/sketch -->
    <title>Artboard 2</title>
    <desc>Created with Sketch.</desc>
    <defs></defs>
    <g id="Artboard-2" stroke="none" stroke-width="1" fill="none" fill-rule="evenodd">
        <g id="Group-2" transform="translate(22.000000, 25.000000)">
            <g id="Group" fill="#252627">
                <path d="M0.9077,97 L0.9077,0.1969 L10.409,0.1969 L10.409,88.4626 L55.2992,88.4626 L55.2992,97 L0.9077,97 Z M74.7760999,97 L74.7760999,0.1969 L129.1676,0.1969 L129.1676,8.7343 L84.2773999,8.7343 L84.2773999,43.9855 L121.0433,43.9855 L121.0433,52.5229 L84.2773999,52.5229 L84.2773999,88.4626 L131.7839,88.4626 L131.7839,97 L74.7760999,97 Z M143.5496,97 L179.0762,0.1969 L189.266,0.1969 L224.7926,97 L214.7405,97 L203.5868,66.1552 L164.6177,66.1552 L153.6017,97 L143.5496,97 Z M167.5094,57.8932 L200.6951,57.8932 L188.0267,22.7797 C186.3743,18.2356 184.3088,10.1113 184.3088,10.1113 L184.0334,10.1113 C184.0334,10.1113 181.9679,18.2356 180.3155,22.7797 L167.5094,57.8932 Z M244.2695,97 L244.2695,0.1969 L275.3897,0.1969 C304.5821,0.1969 323.9978,17.9602 323.9978,48.5296 C323.9978,79.2367 304.5821,97 275.3897,97 L244.2695,97 Z M253.7708,88.4626 L274.4258,88.4626 C298.2479,88.4626 314.0834,74.5549 314.0834,48.5296 C314.0834,22.7797 298.2479,8.7343 274.4258,8.7343 L253.7708,8.7343 L253.7708,88.4626 Z M348.5696,97 L348.5696,0.1969 L402.9611,0.1969 L402.9611,8.7343 L358.0709,8.7343 L358.0709,43.9855 L394.8368,43.9855 L394.8368,52.5229 L358.0709,52.5229 L358.0709,88.4626 L405.5774,88.4626 L405.5774,97 L348.5696,97 Z M428.3591,97 L428.3591,0.1969 L457.6892,0.1969 C466.9151,0.1969 471.4592,1.1608 475.4525,2.9509 C484.1276,7.0819 489.7733,15.4816 489.7733,27.1861 C489.7733,40.2676 482.3375,50.8705 471.3215,53.8999 L471.3215,54.1753 C471.3215,54.1753 472.4231,55.4146 473.9378,58.0309 L495.0059,97 L483.9899,97 L462.2333,56.2408 L437.8604,56.2408 L437.8604,97 L428.3591,97 Z M437.8604,47.7034 L460.8563,47.7034 C472.5608,47.7034 479.9966,39.5791 479.9966,27.4615 C479.9966,19.7503 476.2787,13.4161 469.8068,10.5244 C467.0528,9.2851 464.0234,8.7343 457.1384,8.7343 L437.8604,8.7343 L437.8604,47.7034 Z" id="LEADER"></path>
            </g>
            <polygon id="Fill-7" fill="#0099AA" points="533 97 550 97 550 0 533 0"></polygon>
            <path d="M611.921192,0 L562,0 L562,97 L611.921192,97 L635,73.4976124 L635,23.5036998 L611.921192,0 Z M578.846154,82.7352941 L620.961538,82.7352941 L620.961538,17.1176471 L578.846154,17.1176471 L578.846154,82.7352941 Z" id="Fill-8" fill="#0099AA"></path>
            <polygon id="Fill-9" fill="#00696D" points="618 91 635 74.4703288 635 22.5296712 618 6 618 14.640417"></polygon>
        </g>
    </g>
</svg>
